<svg width="22" height="22" viewBox="0 0 22 22" fill="none" xmlns="http://www.w3.org/2000/svg">
<g filter="url(#filter0_d_1_321)">
<path d="M17 12.0013V7.25863C17 6.92867 16.9334 6.60218 16.8041 6.29915C16.6748 5.99612 16.4857 5.72294 16.2482 5.49634L11.8244 1.27362C11.6016 1.06087 11.3066 0.942322 11 0.942322C10.6934 0.942322 10.3984 1.06087 10.1756 1.27362L5.7518 5.49634C5.51433 5.72294 5.32517 5.99612 5.1959 6.29915C5.06663 6.60218 4.99997 6.92867 5 7.25863V12.0013C5 12.3228 5.12643 12.631 5.35147 12.8583C5.57652 13.0856 5.88174 13.2133 6.2 13.2133H15.8C16.1183 13.2133 16.4235 13.0856 16.6485 12.8583C16.8736 12.631 17 12.3228 17 12.0013Z" fill="#A9DFD8"/>
<path d="M17 12.0013V7.25863C17 6.92867 16.9334 6.60218 16.8041 6.29915C16.6748 5.99612 16.4857 5.72294 16.2482 5.49634L11.8244 1.27362C11.6016 1.06087 11.3066 0.942322 11 0.942322C10.6934 0.942322 10.3984 1.06087 10.1756 1.27362L5.7518 5.49634C5.51433 5.72294 5.32517 5.99612 5.1959 6.29915C5.06663 6.60218 4.99997 6.92867 5 7.25863V12.0013C5 12.3228 5.12643 12.631 5.35147 12.8583C5.57652 13.0856 5.88174 13.2133 6.2 13.2133H15.8C16.1183 13.2133 16.4235 13.0856 16.6485 12.8583C16.8736 12.631 17 12.3228 17 12.0013Z" stroke="#A9DFD8" stroke-width="1.2" stroke-linecap="round" stroke-linejoin="round"/>
</g>
<defs>
<filter id="filter0_d_1_321" x="0.399994" y="0.342316" width="21.2" height="21.471" filterUnits="userSpaceOnUse" color-interpolation-filters="sRGB">
<feFlood flood-opacity="0" result="BackgroundImageFix"/>
<feColorMatrix in="SourceAlpha" type="matrix" values="0 0 0 0 0 0 0 0 0 0 0 0 0 0 0 0 0 0 127 0" result="hardAlpha"/>
<feOffset dy="4"/>
<feGaussianBlur stdDeviation="2"/>
<feComposite in2="hardAlpha" operator="out"/>
<feColorMatrix type="matrix" values="0 0 0 0 0 0 0 0 0 0 0 0 0 0 0 0 0 0 0.25 0"/>
<feBlend mode="normal" in2="BackgroundImageFix" result="effect1_dropShadow_1_321"/>
<feBlend mode="normal" in="SourceGraphic" in2="effect1_dropShadow_1_321" result="shape"/>
</filter>
</defs>
</svg>
